<svg width="358" height="118" viewBox="0 0 358 118" fill="none" xmlns="http://www.w3.org/2000/svg">
<path d="M6.624 9.36H19.296V12.752H6.624V9.36ZM10.272 16.272H14.464V23.664H10.272V16.272ZM17.632 9.36H21.824V11.216C21.824 12.2613 21.792 13.5093 21.728 14.96C21.6853 16.3893 21.4827 18.0427 21.12 19.92L16.992 19.44C17.312 17.6267 17.4933 16.0587 17.536 14.736C17.6 13.4133 17.632 12.24 17.632 11.216V9.36ZM24.672 7.184H28.96V29.36H24.672V7.184ZM27.264 16.24H32.512V19.728H27.264V16.24ZM9.184 32.912H29.92V36.336H9.184V32.912ZM9.184 27.408H13.472V33.968H9.184V27.408ZM5.248 25.424L4.864 22.032C6.57067 22.032 8.45867 22.0213 10.528 22C12.5973 21.9573 14.7093 21.872 16.864 21.744C19.0187 21.5947 21.088 21.3813 23.072 21.104L23.36 24.144C21.312 24.5067 19.2213 24.784 17.088 24.976C14.9547 25.1467 12.8747 25.264 10.848 25.328C8.82133 25.3707 6.95467 25.4027 5.248 25.424ZM55.1335 7.152H59.4215V36.88H55.1335V7.152ZM36.3495 26.512H38.9735C40.7228 26.512 42.3762 26.4907 43.9335 26.448C45.4908 26.384 47.0162 26.288 48.5095 26.16C50.0028 26.0107 51.5282 25.7973 53.0855 25.52L53.5335 28.944C51.1442 29.3707 48.7868 29.6587 46.4615 29.808C44.1575 29.936 41.6615 30 38.9735 30H36.3495V26.512ZM36.2855 9.68H50.2695V21.168H40.6695V27.824H36.3495V17.808H45.9495V13.104H36.2855V9.68ZM70.811 11.888H74.171V15.216C74.171 16.8587 73.9897 18.5013 73.627 20.144C73.2857 21.7867 72.7737 23.3333 72.091 24.784C71.4083 26.2133 70.5443 27.4933 69.499 28.624C68.475 29.7547 67.2803 30.64 65.915 31.28L63.515 27.92C64.7523 27.344 65.819 26.5867 66.715 25.648C67.6323 24.7093 68.3897 23.664 68.987 22.512C69.6057 21.36 70.0643 20.1653 70.363 18.928C70.6617 17.6693 70.811 16.432 70.811 15.216V11.888ZM71.707 11.888H75.067V15.216C75.067 16.3253 75.2163 17.4667 75.515 18.64C75.8137 19.8133 76.251 20.944 76.827 22.032C77.4243 23.12 78.171 24.112 79.067 25.008C79.9843 25.8827 81.051 26.5973 82.267 27.152L79.899 30.544C78.5337 29.904 77.339 29.0507 76.315 27.984C75.3123 26.896 74.459 25.6693 73.755 24.304C73.0723 22.9173 72.5603 21.456 72.219 19.92C71.8777 18.3627 71.707 16.7947 71.707 15.216V11.888ZM64.667 10.032H80.955V13.552H64.667V10.032ZM83.099 7.216H87.387V36.848H83.099V7.216ZM86.459 18.512H91.675V22H86.459V18.512ZM105.465 18.096H110.329V21.52H105.465V18.096ZM115.001 7.184H119.065V36.816H115.001V7.184ZM108.985 7.664H112.953V35.504H108.985V7.664ZM100.281 9.264C101.582 9.264 102.713 9.70133 103.673 10.576C104.654 11.4293 105.401 12.6667 105.913 14.288C106.446 15.888 106.713 17.808 106.713 20.048C106.713 22.2667 106.446 24.1867 105.913 25.808C105.401 27.4293 104.654 28.6773 103.673 29.552C102.713 30.4053 101.571 30.832 100.249 30.832C98.9685 30.832 97.8378 30.4053 96.8565 29.552C95.8965 28.6773 95.1498 27.4293 94.6165 25.808C94.1045 24.1867 93.8485 22.2667 93.8485 20.048C93.8485 17.808 94.1045 15.888 94.6165 14.288C95.1498 12.6667 95.8965 11.4293 96.8565 10.576C97.8378 9.70133 98.9792 9.264 100.281 9.264ZM100.281 13.296C99.7472 13.296 99.2885 13.5413 98.9045 14.032C98.5205 14.5227 98.2218 15.2693 98.0085 16.272C97.8165 17.2533 97.7205 18.512 97.7205 20.048C97.7205 21.5413 97.8165 22.7893 98.0085 23.792C98.2218 24.7947 98.5205 25.552 98.9045 26.064C99.2885 26.5547 99.7472 26.8 100.281 26.8C100.814 26.8 101.273 26.5547 101.657 26.064C102.062 25.552 102.361 24.7947 102.553 23.792C102.745 22.7893 102.841 21.5413 102.841 20.048C102.841 18.512 102.745 17.2533 102.553 16.272C102.361 15.2693 102.062 14.5227 101.657 14.032C101.273 13.5413 100.814 13.296 100.281 13.296ZM144.502 7.184H148.566V36.816H144.502V7.184ZM132.79 18.544H139.094V21.936H132.79V18.544ZM138.262 7.824H142.23V35.504H138.262V7.824ZM131.83 10.672H135.926C135.926 13.488 135.595 16.112 134.934 18.544C134.273 20.976 133.153 23.2053 131.574 25.232C130.017 27.2587 127.851 29.072 125.078 30.672L122.678 27.696C124.918 26.352 126.699 24.8907 128.022 23.312C129.366 21.712 130.337 19.952 130.934 18.032C131.531 16.0907 131.83 13.9253 131.83 11.536V10.672ZM124.31 10.672H133.142V14.096H124.31V10.672ZM159.874 21.84H186.722V25.2H159.874V21.84ZM171.522 23.952H175.778V30.192H171.522V23.952ZM163.17 8.432H183.298V19.472H163.17V8.432ZM179.106 11.76H167.362V16.112H179.106V11.76ZM162.978 32.912H183.746V36.336H162.978V32.912ZM162.978 27.696H167.234V34.064H162.978V27.696ZM198.879 9.168C200.415 9.168 201.802 9.47733 203.039 10.096C204.277 10.7147 205.247 11.5787 205.951 12.688C206.655 13.776 207.007 15.0347 207.007 16.464C207.007 17.872 206.655 19.1307 205.951 20.24C205.247 21.3493 204.277 22.2133 203.039 22.832C201.802 23.4507 200.415 23.76 198.879 23.76C197.322 23.76 195.925 23.4507 194.687 22.832C193.45 22.2133 192.469 21.3493 191.743 20.24C191.039 19.1307 190.687 17.872 190.687 16.464C190.687 15.0347 191.039 13.776 191.743 12.688C192.469 11.5787 193.45 10.7147 194.687 10.096C195.925 9.47733 197.322 9.168 198.879 9.168ZM198.879 12.816C198.111 12.816 197.418 12.9653 196.799 13.264C196.202 13.5413 195.722 13.9573 195.359 14.512C195.018 15.0453 194.847 15.696 194.847 16.464C194.847 17.232 195.018 17.8933 195.359 18.448C195.722 19.0027 196.202 19.4293 196.799 19.728C197.418 20.0053 198.111 20.144 198.879 20.144C199.626 20.144 200.298 20.0053 200.895 19.728C201.493 19.4293 201.962 19.0027 202.303 18.448C202.666 17.8933 202.847 17.232 202.847 16.464C202.847 15.696 202.666 15.0453 202.303 14.512C201.962 13.9573 201.493 13.5413 200.895 13.264C200.298 12.9653 199.626 12.816 198.879 12.816ZM209.791 7.152H214.047V36.88H209.791V7.152ZM189.951 30.896L189.471 27.44C191.199 27.44 193.109 27.4293 195.199 27.408C197.311 27.3653 199.477 27.28 201.695 27.152C203.935 27.0027 206.101 26.7787 208.191 26.48L208.479 29.552C206.346 29.9787 204.181 30.288 201.983 30.48C199.786 30.6507 197.663 30.768 195.615 30.832C193.567 30.8747 191.679 30.896 189.951 30.896ZM245.163 7.216H249.419V36.848H245.163V7.216ZM248.459 18.768H253.675V22.288H248.459V18.768ZM226.027 11.568H243.307V14.96H226.027V11.568ZM234.731 16.656C236.16 16.656 237.44 16.9653 238.571 17.584C239.702 18.1813 240.587 19.0027 241.227 20.048C241.888 21.0933 242.219 22.3093 242.219 23.696C242.219 25.0827 241.888 26.3093 241.227 27.376C240.587 28.4213 239.702 29.2533 238.571 29.872C237.462 30.4693 236.182 30.768 234.731 30.768C233.302 30.768 232.011 30.4693 230.859 29.872C229.728 29.2533 228.832 28.4213 228.171 27.376C227.531 26.3093 227.211 25.0827 227.211 23.696C227.211 22.3093 227.531 21.0933 228.171 20.048C228.832 19.0027 229.728 18.1813 230.859 17.584C232.011 16.9653 233.302 16.656 234.731 16.656ZM234.731 20.112C234.048 20.112 233.451 20.2507 232.939 20.528C232.427 20.8053 232.022 21.2107 231.723 21.744C231.424 22.2773 231.275 22.928 231.275 23.696C231.275 24.4427 231.424 25.0933 231.723 25.648C232.022 26.1813 232.427 26.5973 232.939 26.896C233.451 27.1733 234.048 27.312 234.731 27.312C235.392 27.312 235.979 27.1733 236.491 26.896C237.003 26.5973 237.408 26.1813 237.707 25.648C238.006 25.0933 238.155 24.4427 238.155 23.696C238.155 22.928 238.006 22.2773 237.707 21.744C237.408 21.2107 237.003 20.8053 236.491 20.528C235.979 20.2507 235.392 20.112 234.731 20.112ZM232.555 7.696H236.843V12.88H232.555V7.696ZM276.169 7.152H280.393V36.88H276.169V7.152ZM271.273 13.488H276.873V16.88H271.273V13.488ZM256.617 26.8H258.985C260.457 26.8 261.854 26.7893 263.177 26.768C264.499 26.7253 265.822 26.6507 267.145 26.544C268.467 26.4373 269.843 26.2773 271.273 26.064L271.593 29.52C270.142 29.7547 268.734 29.9253 267.369 30.032C266.025 30.1387 264.67 30.2133 263.305 30.256C261.939 30.2987 260.499 30.32 258.985 30.32H256.617V26.8ZM256.585 9.68H269.801V21.136H260.841V27.6H256.617V17.808H265.609V13.04H256.585V9.68ZM271.208 21.552H276.809V24.944H271.208V21.552ZM299.366 11.856H306.822V15.248H299.366V11.856ZM299.366 18.224H306.95V21.616H299.366V18.224ZM286.246 9.584H300.262V24.08H286.246V9.584ZM296.102 12.912H290.438V20.72H296.102V12.912ZM305.574 7.216H309.862V28.784H305.574V7.216ZM290.246 32.912H310.502V36.336H290.246V32.912ZM290.246 26.768H294.502V34.704H290.246V26.768ZM319.278 27.0227V26.6364C319.286 25.3106 319.403 24.2538 319.631 23.4659C319.866 22.678 320.206 22.0417 320.653 21.5568C321.1 21.072 321.638 20.6326 322.267 20.2386C322.737 19.9356 323.157 19.6212 323.528 19.2955C323.9 18.9697 324.195 18.6098 324.415 18.2159C324.634 17.8144 324.744 17.3674 324.744 16.875C324.744 16.3523 324.619 15.8939 324.369 15.5C324.119 15.1061 323.782 14.803 323.358 14.5909C322.941 14.3788 322.479 14.2727 321.972 14.2727C321.479 14.2727 321.013 14.3826 320.574 14.6023C320.134 14.8144 319.775 15.1326 319.494 15.5568C319.214 15.9735 319.063 16.4924 319.04 17.1136H314.403C314.441 15.5985 314.805 14.3485 315.494 13.3636C316.184 12.3712 317.097 11.6326 318.233 11.1477C319.369 10.6553 320.623 10.4091 321.994 10.4091C323.502 10.4091 324.835 10.6591 325.994 11.1591C327.153 11.6515 328.063 12.3674 328.722 13.3068C329.381 14.2462 329.71 15.3788 329.71 16.7045C329.71 17.5909 329.563 18.3788 329.267 19.0682C328.979 19.75 328.574 20.3561 328.051 20.8864C327.528 21.4091 326.911 21.8826 326.199 22.3068C325.6 22.6629 325.108 23.0341 324.722 23.4205C324.343 23.8068 324.059 24.2538 323.869 24.7614C323.688 25.2689 323.593 25.8939 323.585 26.6364V27.0227H319.278ZM321.528 34.2955C320.771 34.2955 320.123 34.0303 319.585 33.5C319.055 32.9621 318.794 32.3182 318.801 31.5682C318.794 30.8258 319.055 30.1894 319.585 29.6591C320.123 29.1288 320.771 28.8636 321.528 28.8636C322.248 28.8636 322.881 29.1288 323.426 29.6591C323.972 30.1894 324.248 30.8258 324.256 31.5682C324.248 32.0682 324.116 32.5265 323.858 32.9432C323.608 33.3523 323.278 33.6818 322.869 33.9318C322.46 34.1742 322.013 34.2955 321.528 34.2955Z" fill="#474A50"/>
<g filter="url(#filter0_d_103_3)">
<rect x="176" y="43" width="94" height="66" rx="33" fill="#FBE464"/>
</g>
<g filter="url(#filter1_d_103_3)">
<rect x="4" y="43" width="184" height="66" rx="33" fill="#474A50"/>
</g>
<path d="M38.1556 61.04H43.3156C43.3156 63.92 43.089 66.6667 42.6356 69.28C42.209 71.8933 41.409 74.3733 40.2356 76.72C39.0623 79.0667 37.3956 81.2667 35.2356 83.32C33.0756 85.3733 30.2623 87.28 26.7956 89.04L23.9556 84.96C26.8356 83.52 29.1956 81.9867 31.0356 80.36C32.9023 78.7067 34.3423 76.9467 35.3556 75.08C36.3956 73.1867 37.1156 71.1333 37.5156 68.92C37.9423 66.7067 38.1556 64.3067 38.1556 61.72V61.04ZM26.2756 61.04H41.2756V65.28H26.2756V61.04ZM38.2756 70.12V74.2L24.9956 75.48L24.3156 70.96L38.2756 70.12ZM47.7956 57.44H53.1556V94.48H47.7956V57.44ZM51.7956 71.64H58.3156V76H51.7956V71.64ZM74.9525 61.04H80.1125C80.1125 63.92 79.8858 66.6667 79.4325 69.28C79.0058 71.8933 78.2058 74.3733 77.0325 76.72C75.8592 79.0667 74.1925 81.2667 72.0325 83.32C69.8725 85.3733 67.0592 87.28 63.5925 89.04L60.7525 84.96C63.6325 83.52 65.9925 81.9867 67.8325 80.36C69.6992 78.7067 71.1392 76.9467 72.1525 75.08C73.1925 73.1867 73.9125 71.1333 74.3125 68.92C74.7392 66.7067 74.9525 64.3067 74.9525 61.72V61.04ZM63.0725 61.04H78.0725V65.28H63.0725V61.04ZM75.0725 70.12V74.2L61.7925 75.48L61.1125 70.96L75.0725 70.12ZM84.5925 57.44H89.9525V94.48H84.5925V57.44ZM88.5925 71.64H95.1125V76H88.5925V71.64ZM111.829 78.32H117.109V86.76H111.829V78.32ZM114.469 59.4C117.109 59.4 119.469 59.8267 121.549 60.68C123.656 61.5067 125.309 62.68 126.509 64.2C127.709 65.72 128.309 67.52 128.309 69.6C128.309 71.6533 127.709 73.4533 126.509 75C125.309 76.5467 123.656 77.7467 121.549 78.6C119.469 79.4267 117.109 79.84 114.469 79.84C111.856 79.84 109.496 79.4267 107.389 78.6C105.309 77.7467 103.656 76.5467 102.429 75C101.229 73.4533 100.629 71.6533 100.629 69.6C100.629 67.52 101.229 65.72 102.429 64.2C103.656 62.68 105.309 61.5067 107.389 60.68C109.496 59.8267 111.856 59.4 114.469 59.4ZM114.469 63.6C112.789 63.6 111.296 63.84 109.989 64.32C108.709 64.8 107.696 65.48 106.949 66.36C106.229 67.24 105.869 68.32 105.869 69.6C105.869 70.8533 106.229 71.9333 106.949 72.84C107.696 73.72 108.709 74.4 109.989 74.88C111.296 75.36 112.789 75.6 114.469 75.6C116.176 75.6 117.669 75.36 118.949 74.88C120.256 74.4 121.269 73.72 121.989 72.84C122.709 71.9333 123.069 70.8533 123.069 69.6C123.069 68.32 122.709 67.24 121.989 66.36C121.269 65.48 120.256 64.8 118.949 64.32C117.669 63.84 116.176 63.6 114.469 63.6ZM97.7494 85.92H131.309V90.24H97.7494V85.92ZM134.466 77.16H167.986V81.36H134.466V77.16ZM148.586 72.76H153.866V78.24H148.586V72.76ZM138.226 83.56H163.906V94.56H158.586V87.76H138.226V83.56ZM138.666 70.44H164.466V74.48H138.666V70.44ZM138.666 58.36H164.146V62.4H143.946V72.52H138.666V58.36ZM142.426 64.44H163.346V68.32H142.426V64.44Z" fill="#FBE464"/>
<path d="M212.491 61.9091V91H206.34V67.7472H206.17L199.508 71.9233V66.4688L206.71 61.9091H212.491ZM222.999 87.6193C222.061 87.6193 221.256 87.2879 220.584 86.625C219.921 85.9621 219.589 85.1572 219.589 84.2102C219.589 83.2822 219.921 82.4867 220.584 81.8239C221.256 81.161 222.061 80.8295 222.999 80.8295C223.908 80.8295 224.703 81.161 225.385 81.8239C226.067 82.4867 226.408 83.2822 226.408 84.2102C226.408 84.8352 226.247 85.4081 225.925 85.929C225.612 86.4403 225.2 86.8523 224.689 87.1648C224.178 87.4678 223.614 87.6193 222.999 87.6193ZM222.999 73.3438C222.061 73.3438 221.256 73.0123 220.584 72.3494C219.921 71.6866 219.589 70.8816 219.589 69.9347C219.589 69.0066 219.921 68.2159 220.584 67.5625C221.256 66.8996 222.061 66.5682 222.999 66.5682C223.908 66.5682 224.703 66.8996 225.385 67.5625C226.067 68.2159 226.408 69.0066 226.408 69.9347C226.408 70.5691 226.247 71.1468 225.925 71.6676C225.612 72.179 225.2 72.5862 224.689 72.8892C224.178 73.1922 223.614 73.3438 222.999 73.3438ZM243.975 61.9091V91H237.825V67.7472H237.654L230.992 71.9233V66.4688L238.194 61.9091H243.975ZM284.385 67.72H288.425V68.68C288.425 70.6 288.265 72.5067 287.945 74.4C287.651 76.2667 287.171 78.04 286.505 79.72C285.865 81.3733 285.025 82.88 283.985 84.24C282.971 85.5733 281.718 86.6533 280.225 87.48L277.225 83.48C278.531 82.7067 279.638 81.7733 280.545 80.68C281.478 79.5867 282.225 78.3867 282.785 77.08C283.345 75.7467 283.745 74.3733 283.985 72.96C284.251 71.52 284.385 70.0933 284.385 68.68V67.72ZM285.425 67.72H289.465V68.68C289.465 70.0667 289.585 71.4533 289.825 72.84C290.091 74.2 290.505 75.4933 291.065 76.72C291.625 77.9467 292.358 79.08 293.265 80.12C294.171 81.1333 295.278 81.9867 296.585 82.68L293.705 86.64C291.731 85.6 290.131 84.16 288.905 82.32C287.678 80.4533 286.785 78.3467 286.225 76C285.691 73.6533 285.425 71.2133 285.425 68.68V67.72ZM278.465 63.76H295.345V68.04H278.465V63.76ZM284.385 58.72H289.465V67.16H284.385V58.72ZM304.945 57.48H310.025V94.52H304.945V57.48ZM300.545 71.68H306.665V76H300.545V71.68ZM296.985 58.08H301.945V92.88H296.985V58.08ZM316.742 74.12H319.942C322.475 74.12 324.702 74.1067 326.622 74.08C328.568 74.0267 330.368 73.9333 332.022 73.8C333.702 73.6667 335.395 73.4667 337.102 73.2L337.622 77.36C335.862 77.6267 334.115 77.84 332.382 78C330.675 78.1333 328.822 78.2267 326.822 78.28C324.822 78.3067 322.528 78.32 319.942 78.32H316.742V74.12ZM316.742 60.04H334.582V64.28H322.022V75.8H316.742V60.04ZM320.382 67.08H333.502V71.2H320.382V67.08ZM340.182 57.52H345.502V79.92H340.182V57.52ZM332.982 80.48C335.595 80.48 337.848 80.76 339.742 81.32C341.635 81.88 343.088 82.68 344.102 83.72C345.142 84.76 345.662 86.0267 345.662 87.52C345.662 89.76 344.528 91.4933 342.262 92.72C339.995 93.9467 336.902 94.56 332.982 94.56C329.062 94.56 325.968 93.9467 323.702 92.72C321.462 91.4933 320.342 89.76 320.342 87.52C320.342 85.3067 321.462 83.5867 323.702 82.36C325.968 81.1067 329.062 80.48 332.982 80.48ZM332.982 84.52C331.382 84.52 330.035 84.6267 328.942 84.84C327.848 85.0533 327.022 85.3867 326.462 85.84C325.902 86.2933 325.622 86.8533 325.622 87.52C325.622 88.1867 325.902 88.7467 326.462 89.2C327.022 89.6267 327.848 89.9467 328.942 90.16C330.035 90.3733 331.382 90.48 332.982 90.48C334.608 90.48 335.955 90.3733 337.022 90.16C338.115 89.9467 338.942 89.6267 339.502 89.2C340.088 88.7467 340.382 88.1867 340.382 87.52C340.382 86.8533 340.088 86.2933 339.502 85.84C338.942 85.3867 338.115 85.0533 337.022 84.84C335.955 84.6267 334.608 84.52 332.982 84.52Z" fill="#474A50"/>
<defs>
<filter id="filter0_d_103_3" x="172.3" y="36.3" width="107.4" height="79.4" filterUnits="userSpaceOnUse" color-interpolation-filters="sRGB">
<feFlood flood-opacity="0" result="BackgroundImageFix"/>
<feColorMatrix in="SourceAlpha" type="matrix" values="0 0 0 0 0 0 0 0 0 0 0 0 0 0 0 0 0 0 127 0" result="hardAlpha"/>
<feOffset dx="3"/>
<feGaussianBlur stdDeviation="3.35"/>
<feComposite in2="hardAlpha" operator="out"/>
<feColorMatrix type="matrix" values="0 0 0 0 0 0 0 0 0 0 0 0 0 0 0 0 0 0 0.25 0"/>
<feBlend mode="normal" in2="BackgroundImageFix" result="effect1_dropShadow_103_3"/>
<feBlend mode="normal" in="SourceGraphic" in2="effect1_dropShadow_103_3" result="shape"/>
</filter>
<filter id="filter1_d_103_3" x="0.3" y="36.3" width="197.4" height="79.4" filterUnits="userSpaceOnUse" color-interpolation-filters="sRGB">
<feFlood flood-opacity="0" result="BackgroundImageFix"/>
<feColorMatrix in="SourceAlpha" type="matrix" values="0 0 0 0 0 0 0 0 0 0 0 0 0 0 0 0 0 0 127 0" result="hardAlpha"/>
<feOffset dx="3"/>
<feGaussianBlur stdDeviation="3.35"/>
<feComposite in2="hardAlpha" operator="out"/>
<feColorMatrix type="matrix" values="0 0 0 0 0 0 0 0 0 0 0 0 0 0 0 0 0 0 0.25 0"/>
<feBlend mode="normal" in2="BackgroundImageFix" result="effect1_dropShadow_103_3"/>
<feBlend mode="normal" in="SourceGraphic" in2="effect1_dropShadow_103_3" result="shape"/>
</filter>
</defs>
</svg>
