<svg width="755" height="270" viewBox="0 0 755 270" fill="none" xmlns="http://www.w3.org/2000/svg">
<g filter="url(#filter0_d_102_2)">
<rect x="226" y="121" width="250" height="142" rx="71" fill="#6BA2FF"/>
</g>
<g filter="url(#filter1_d_102_2)">
<rect x="4" y="121" width="250" height="142" rx="71" fill="#474A50"/>
</g>
<path d="M9.78693 34.1818H27.9915L47.2188 81.0909H48.0369L67.2642 34.1818H85.4688V104H71.1506V58.5568H70.571L52.5028 103.659H42.7528L24.6847 58.3864H24.1051V104H9.78693V34.1818ZM93.5398 34.1818H110.074L125.994 64.25H126.676L142.597 34.1818H159.131L133.665 79.3182V104H119.006V79.3182L93.5398 34.1818ZM251.408 23.552H263.6V112.448H251.408V23.552ZM239.6 57.824H254.384V68.096H239.6V57.824ZM231.536 25.088H243.344V108.32H231.536V25.088ZM189.776 81.92H195.92C199.632 81.92 203.152 81.888 206.48 81.824C209.808 81.696 213.104 81.472 216.368 81.152C219.696 80.768 223.088 80.288 226.544 79.712L227.6 90.08C224.016 90.72 220.528 91.232 217.136 91.616C213.744 92 210.32 92.256 206.864 92.384C203.408 92.448 199.76 92.48 195.92 92.48H189.776V81.92ZM189.776 33.92H222.512V44.192H202.352V87.008H189.776V33.92ZM275.592 31.328H327.816V41.408H275.592V31.328ZM301.704 44.192C305.992 44.192 309.768 44.896 313.032 46.304C316.36 47.712 318.952 49.632 320.808 52.064C322.664 54.496 323.592 57.376 323.592 60.704C323.592 63.904 322.664 66.752 320.808 69.248C318.952 71.68 316.36 73.6 313.032 75.008C309.768 76.352 305.992 77.024 301.704 77.024C297.48 77.024 293.704 76.352 290.376 75.008C287.048 73.6 284.456 71.68 282.6 69.248C280.744 66.752 279.816 63.904 279.816 60.704C279.816 57.376 280.744 54.496 282.6 52.064C284.456 49.632 287.048 47.712 290.376 46.304C293.704 44.896 297.48 44.192 301.704 44.192ZM301.704 53.888C298.888 53.888 296.584 54.464 294.792 55.616C293 56.704 292.104 58.4 292.104 60.704C292.104 62.88 293 64.544 294.792 65.696C296.584 66.848 298.888 67.424 301.704 67.424C304.584 67.424 306.888 66.848 308.616 65.696C310.408 64.544 311.304 62.88 311.304 60.704C311.304 58.4 310.408 56.704 308.616 55.616C306.888 54.464 304.584 53.888 301.704 53.888ZM332.712 23.648H345.48V79.328H332.712V23.648ZM342.024 46.496H357.288V56.96H342.024V46.496ZM286.152 83.072H345.48V112.544H332.712V93.152H286.152V83.072ZM295.368 23.072H308.04V37.184H295.368V23.072ZM371.681 31.136H427.937V41.312H371.681V31.136ZM363.905 91.424H444.353V101.792H363.905V91.424ZM380.801 63.488H393.377V94.784H380.801V63.488ZM424.289 31.136H437.057V39.776C437.057 43.36 436.993 47.2 436.865 51.296C436.801 55.328 436.545 59.776 436.097 64.64C435.713 69.504 435.009 74.912 433.985 80.864L421.313 79.616C422.785 71.168 423.649 63.744 423.905 57.344C424.161 50.88 424.289 45.024 424.289 39.776V31.136ZM402.785 63.488H415.265V94.784H402.785V63.488Z" fill="#474A50"/>
<path d="M85.0528 201.944C91.4528 201.944 97.0208 202.616 101.757 203.96C106.493 205.304 110.141 207.224 112.701 209.72C115.325 212.216 116.637 215.224 116.637 218.744C116.637 222.2 115.325 225.176 112.701 227.672C110.141 230.232 106.493 232.184 101.757 233.528C97.0208 234.872 91.4528 235.544 85.0528 235.544C78.7168 235.544 73.1808 234.872 68.4448 233.528C63.7088 232.184 60.0288 230.232 57.4048 227.672C54.8448 225.176 53.5648 222.2 53.5648 218.744C53.5648 215.224 54.8448 212.216 57.4048 209.72C60.0288 207.224 63.7088 205.304 68.4448 203.96C73.1808 202.616 78.7168 201.944 85.0528 201.944ZM85.0528 211.544C81.0848 211.544 77.6928 211.8 74.8768 212.312C72.0608 212.824 69.9168 213.624 68.4448 214.712C67.0368 215.8 66.3328 217.144 66.3328 218.744C66.3328 220.344 67.0368 221.688 68.4448 222.776C69.9168 223.8 72.0608 224.6 74.8768 225.176C77.6928 225.688 81.0848 225.944 85.0528 225.944C89.0848 225.944 92.5088 225.688 95.3248 225.176C98.1408 224.6 100.285 223.8 101.757 222.776C103.229 221.688 103.965 220.344 103.965 218.744C103.965 217.144 103.229 215.8 101.757 214.712C100.285 213.624 98.1408 212.824 95.3248 212.312C92.5088 211.8 89.0848 211.544 85.0528 211.544ZM54.5248 150.584H110.877V160.568H54.5248V150.584ZM45.5968 186.296H125.565V196.376H45.5968V186.296ZM75.1648 170.744H87.9328V188.792H75.1648V170.744ZM103.389 150.584H116.157V157.88C116.157 161.4 116.061 165.08 115.869 168.92C115.677 172.76 114.941 176.984 113.661 181.592L100.989 180.344C102.205 175.8 102.909 171.768 103.101 168.248C103.293 164.728 103.389 161.272 103.389 157.88V150.584ZM155.125 160.664H165.301V170.648C165.301 175.768 164.757 180.792 163.669 185.72C162.645 190.648 161.077 195.288 158.965 199.64C156.917 203.928 154.325 207.736 151.189 211.064C148.053 214.328 144.405 216.92 140.245 218.84L132.949 208.76C136.661 207.032 139.893 204.792 142.645 202.04C145.461 199.288 147.765 196.216 149.557 192.824C151.413 189.368 152.789 185.752 153.685 181.976C154.645 178.136 155.125 174.36 155.125 170.648V160.664ZM157.909 160.664H167.989V170.648C167.989 174.168 168.437 177.752 169.333 181.4C170.293 184.984 171.669 188.408 173.461 191.672C175.253 194.872 177.525 197.752 180.277 200.312C183.029 202.872 186.293 204.92 190.069 206.456L183.061 216.632C178.837 214.776 175.157 212.28 172.021 209.144C168.885 206.008 166.261 202.392 164.149 198.296C162.037 194.2 160.469 189.816 159.445 185.144C158.421 180.408 157.909 175.576 157.909 170.648V160.664ZM136.501 155.096H186.421V165.656H136.501V155.096ZM194.677 146.648H207.445V235.544H194.677V146.648Z" fill="#6BA2FF"/>
<path d="M323.587 146.648H336.355V191H323.587V146.648ZM331.267 163.64H348.067V174.008H331.267V163.64ZM277.699 194.456H336.355V218.84H290.467V229.496H277.795V209.624H323.779V204.344H277.699V194.456ZM277.795 224.6H338.947V234.584H277.795V224.6ZM290.659 149.144C295.267 149.144 299.331 150.008 302.851 151.736C306.435 153.464 309.251 155.832 311.299 158.84C313.411 161.848 314.467 165.336 314.467 169.304C314.467 173.208 313.411 176.696 311.299 179.768C309.251 182.84 306.435 185.24 302.851 186.968C299.331 188.632 295.267 189.464 290.659 189.464C286.179 189.464 282.147 188.632 278.563 186.968C275.043 185.24 272.227 182.84 270.115 179.768C268.067 176.696 267.043 173.208 267.043 169.304C267.043 165.336 268.067 161.848 270.115 158.84C272.227 155.832 275.043 153.464 278.563 151.736C282.147 150.008 286.179 149.144 290.659 149.144ZM290.755 159.416C288.579 159.416 286.627 159.832 284.899 160.664C283.171 161.432 281.795 162.552 280.771 164.024C279.811 165.432 279.331 167.192 279.331 169.304C279.331 171.416 279.811 173.24 280.771 174.776C281.795 176.248 283.171 177.368 284.899 178.136C286.627 178.904 288.579 179.288 290.755 179.288C292.931 179.288 294.883 178.904 296.611 178.136C298.339 177.368 299.683 176.248 300.643 174.776C301.603 173.24 302.083 171.416 302.083 169.304C302.083 167.192 301.603 165.432 300.643 164.024C299.683 162.552 298.339 161.432 296.611 160.664C294.883 159.832 292.931 159.416 290.755 159.416ZM415.836 146.552H428.604V199.256H415.836V146.552ZM359.388 186.104H367.068C372.892 186.104 378.108 186.04 382.716 185.912C387.324 185.784 391.708 185.56 395.868 185.24C400.028 184.856 404.22 184.312 408.444 183.608L409.884 193.784C405.532 194.488 401.18 195.064 396.828 195.512C392.54 195.896 387.996 196.152 383.196 196.28C378.396 196.344 373.02 196.376 367.068 196.376H359.388V186.104ZM359.196 151.64H400.188V178.52H371.868V192.152H359.388V168.92H387.516V161.816H359.196V151.64ZM369.468 203.288H428.604V234.584H369.468V203.288ZM416.124 213.272H382.044V224.504H416.124V213.272Z" fill="#F2F2F2" fill-opacity="0.94902"/>
<path d="M532.362 174.392H555.786V184.664H532.362V174.392ZM508.17 153.368H518.442V166.328C518.442 171.896 517.962 177.304 517.002 182.552C516.042 187.8 514.57 192.696 512.586 197.24C510.602 201.784 508.074 205.784 505.002 209.24C501.994 212.696 498.41 215.48 494.25 217.592L486.282 207.416C490.058 205.624 493.29 203.288 495.978 200.408C498.73 197.528 501.002 194.264 502.794 190.616C504.65 186.904 505.994 183 506.826 178.904C507.722 174.744 508.17 170.552 508.17 166.328V153.368ZM510.762 153.368H520.938V166.328C520.938 170.488 521.354 174.616 522.186 178.712C523.018 182.744 524.266 186.52 525.93 190.04C527.658 193.56 529.866 196.696 532.554 199.448C535.242 202.136 538.442 204.312 542.154 205.976L534.474 216.152C530.314 214.104 526.73 211.416 523.722 208.088C520.714 204.696 518.25 200.824 516.33 196.472C514.474 192.12 513.066 187.384 512.106 182.264C511.21 177.144 510.762 171.832 510.762 166.328V153.368ZM549.354 146.456H562.122V235.64H549.354V146.456ZM636.802 146.456H649.57V235.64H636.802V146.456ZM580.162 153.56H592.834V175.256H611.266V153.56H623.938V214.904H580.162V153.56ZM592.834 185.144V204.728H611.266V185.144H592.834ZM697.179 151.736H708.219V158.168C708.219 162.008 707.675 165.752 706.587 169.4C705.563 172.984 704.027 176.376 701.979 179.576C699.931 182.776 697.403 185.688 694.395 188.312C691.451 190.872 688.059 193.08 684.219 194.936C680.379 196.792 676.155 198.168 671.547 199.064L666.075 188.408C670.043 187.704 673.659 186.648 676.923 185.24C680.251 183.768 683.163 182.008 685.659 179.96C688.155 177.912 690.267 175.704 691.995 173.336C693.723 170.904 695.003 168.408 695.835 165.848C696.731 163.224 697.179 160.664 697.179 158.168V151.736ZM699.675 151.736H710.811V158.168C710.811 160.728 711.227 163.32 712.059 165.944C712.955 168.568 714.235 171.096 715.899 173.528C717.627 175.896 719.739 178.072 722.235 180.056C724.731 182.04 727.611 183.768 730.875 185.24C734.139 186.648 737.819 187.704 741.915 188.408L736.443 199.064C731.835 198.168 727.611 196.792 723.771 194.936C719.931 193.08 716.507 190.872 713.499 188.312C710.555 185.752 708.027 182.872 705.915 179.672C703.867 176.472 702.299 173.048 701.211 169.4C700.187 165.752 699.675 162.008 699.675 158.168V151.736ZM664.155 214.232H744.699V224.696H664.155V214.232Z" fill="#474A50"/>
<defs>
<filter id="filter0_d_102_2" x="222.3" y="114.3" width="263.4" height="155.4" filterUnits="userSpaceOnUse" color-interpolation-filters="sRGB">
<feFlood flood-opacity="0" result="BackgroundImageFix"/>
<feColorMatrix in="SourceAlpha" type="matrix" values="0 0 0 0 0 0 0 0 0 0 0 0 0 0 0 0 0 0 127 0" result="hardAlpha"/>
<feOffset dx="3"/>
<feGaussianBlur stdDeviation="3.35"/>
<feComposite in2="hardAlpha" operator="out"/>
<feColorMatrix type="matrix" values="0 0 0 0 0 0 0 0 0 0 0 0 0 0 0 0 0 0 0.25 0"/>
<feBlend mode="normal" in2="BackgroundImageFix" result="effect1_dropShadow_102_2"/>
<feBlend mode="normal" in="SourceGraphic" in2="effect1_dropShadow_102_2" result="shape"/>
</filter>
<filter id="filter1_d_102_2" x="0.3" y="114.3" width="263.4" height="155.4" filterUnits="userSpaceOnUse" color-interpolation-filters="sRGB">
<feFlood flood-opacity="0" result="BackgroundImageFix"/>
<feColorMatrix in="SourceAlpha" type="matrix" values="0 0 0 0 0 0 0 0 0 0 0 0 0 0 0 0 0 0 127 0" result="hardAlpha"/>
<feOffset dx="3"/>
<feGaussianBlur stdDeviation="3.35"/>
<feComposite in2="hardAlpha" operator="out"/>
<feColorMatrix type="matrix" values="0 0 0 0 0 0 0 0 0 0 0 0 0 0 0 0 0 0 0.25 0"/>
<feBlend mode="normal" in2="BackgroundImageFix" result="effect1_dropShadow_102_2"/>
<feBlend mode="normal" in="SourceGraphic" in2="effect1_dropShadow_102_2" result="shape"/>
</filter>
</defs>
</svg>
