<svg xmlns="http://www.w3.org/2000/svg" width="1006" height="272" fill="none"><path fill="#474A50" d="M125.787 34.1818h18.204l19.228 46.9091h.818l19.227-46.9091h18.205V104h-14.318V58.5568h-.58l-18.068 45.1022h-9.75l-18.068-45.2726h-.58V104h-14.318V34.1818Zm83.753 0h16.534l15.92 30.0682h.682l15.921-30.0682h16.534l-25.466 45.1364V104h-14.659V79.3182L209.54 34.1818ZM367.408 23.552H379.6v88.896h-12.192V23.552ZM355.6 57.824h14.784v10.272H355.6V57.824Zm-8.064-32.736h11.808v83.232h-11.808V25.088Zm-41.76 56.832h6.144c3.712 0 7.232-.032 10.56-.096 3.328-.128 6.624-.352 9.888-.672 3.328-.384 6.72-.864 10.176-1.44L343.6 90.08c-3.584.64-7.072 1.152-10.464 1.536-3.392.384-6.816.64-10.272.768-3.456.064-7.104.096-10.944.096h-6.144V81.92Zm0-48h32.736v10.272h-20.16v42.816h-12.576V33.92Zm85.816-2.592h52.224v10.08h-52.224v-10.08Zm26.112 12.864c4.288 0 8.064.704 11.328 2.112 3.328 1.408 5.92 3.328 7.776 5.76 1.856 2.432 2.784 5.312 2.784 8.64 0 3.2-.928 6.048-2.784 8.544-1.856 2.432-4.448 4.352-7.776 5.76-3.264 1.344-7.04 2.016-11.328 2.016-4.224 0-8-.672-11.328-2.016-3.328-1.408-5.92-3.328-7.776-5.76-1.856-2.496-2.784-5.344-2.784-8.544 0-3.328.928-6.208 2.784-8.64 1.856-2.432 4.448-4.352 7.776-5.76 3.328-1.408 7.104-2.112 11.328-2.112Zm0 9.696c-2.816 0-5.12.576-6.912 1.728-1.792 1.088-2.688 2.784-2.688 5.088 0 2.176.896 3.84 2.688 4.992 1.792 1.152 4.096 1.728 6.912 1.728 2.88 0 5.184-.576 6.912-1.728 1.792-1.152 2.688-2.816 2.688-4.992 0-2.304-.896-4-2.688-5.088-1.728-1.152-4.032-1.728-6.912-1.728Zm31.008-30.24h12.768v55.68h-12.768v-55.68Zm9.312 22.848h15.264V56.96h-15.264V46.496Zm-55.872 36.576h59.328v29.472h-12.768V93.152h-46.56v-10.08Zm9.216-60h12.672v14.112h-12.672V23.072Zm76.313 8.064h56.256v10.176h-56.256V31.136Zm-7.776 60.288h80.448v10.368h-80.448V91.424Zm16.896-27.936h12.576v31.296h-12.576V63.488Zm43.488-32.352h12.768v8.64c0 3.584-.064 7.424-.192 11.52-.064 4.032-.32 8.48-.768 13.344-.384 4.864-1.088 10.272-2.112 16.224l-12.672-1.248c1.472-8.448 2.336-15.872 2.592-22.272.256-6.464.384-12.32.384-17.568v-8.64Zm-21.504 32.352h12.48v31.296h-12.48V63.488Z"/><g filter="url(#a)"><rect width="250" height="142" x="334" y="123" fill="#6BA2FF" rx="71"/></g><g filter="url(#b)"><rect width="250" height="142" x="112" y="123" fill="#474A50" rx="71"/></g><path fill="#6BA2FF" d="M193.053 203.944c19.2 0 31.488 6.336 31.488 16.896 0 10.368-12.288 16.704-31.488 16.704s-31.488-6.336-31.488-16.704c0-10.56 12.288-16.896 31.488-16.896Zm0 9.6c-12 0-18.816 2.496-18.816 7.296 0 4.704 6.816 7.104 18.816 7.104s18.816-2.4 18.816-7.104c0-4.8-6.816-7.296-18.816-7.296Zm-30.528-60.96h56.256v10.08h-56.256v-10.08Zm-9.024 35.712h80.064v10.176h-80.064v-10.176Zm29.664-15.456h12.672v18.048h-12.672V172.84Zm28.224-20.256h12.672v7.296c0 7.008 0 14.592-2.4 23.808l-12.672-1.344c2.4-9.12 2.4-15.552 2.4-22.464v-7.296Zm51.64 10.08h10.176v9.984c0 20.544-8.352 40.608-25.056 48.192l-7.2-10.08c14.88-6.624 22.08-23.04 22.08-38.112v-9.984Zm2.88 0h10.08v9.984c0 14.4 7.104 29.76 21.984 35.904l-6.912 10.08c-16.896-7.296-25.152-26.208-25.152-45.984v-9.984Zm-21.408-5.472h49.824v10.464h-49.824v-10.464Zm58.08-8.544h12.864v88.896h-12.864v-88.896Z"/><path fill="#F2F2F2" fill-opacity=".94902" d="M431.587 148.648h12.768V193h-12.768v-44.352Zm7.584 16.992h16.896v10.464h-16.896V165.64Zm-53.568 30.912h58.752v24.384h-45.888v10.56h-12.672V211.72h45.984v-5.376h-46.176v-9.792Zm.192 30.048h61.152v9.984h-61.152V226.6Zm12.864-75.36c13.632 0 23.712 8.352 23.712 20.16 0 11.712-10.08 20.16-23.712 20.16-13.536 0-23.712-8.448-23.712-20.16 0-11.808 10.176-20.16 23.712-20.16Zm0 10.272c-6.528 0-11.328 3.648-11.328 9.888s4.8 9.984 11.328 9.984c6.624 0 11.424-3.744 11.424-9.984s-4.8-9.888-11.424-9.888Zm125.081-12.864h12.864v52.704H523.74v-52.704Zm-56.448 39.456h7.776c17.28 0 28.512-.288 41.376-2.4l1.44 10.08c-13.248 2.304-25.056 2.688-42.816 2.688h-7.776v-10.368Zm-.096-34.368h40.896v26.784h-28.224v13.728h-12.576v-23.232h28.224v-7.2h-28.32v-10.08Zm10.272 51.648h59.136v31.2h-59.136v-31.2Zm46.56 9.984h-34.08v11.136h34.08v-11.136Z"/><path fill="#474A50" d="M640.266 176.392h23.424v10.272h-23.424v-10.272Zm-24.192-20.928h10.368v12.864c0 22.368-7.584 43.008-24.288 51.36l-7.968-10.272c15.168-7.008 21.888-24.192 21.888-41.088v-12.864Zm2.688 0h10.176v12.864c0 16.896 6.432 33.12 21.12 39.648l-7.584 10.176c-16.704-8.064-23.712-27.648-23.712-49.824v-12.864Zm38.592-6.912h12.672v89.184h-12.672v-89.184Zm87.352 0h12.864v89.184h-12.864v-89.184Zm-56.544 7.104h12.672v21.6h18.336v-21.6h12.672V217h-43.68v-61.344Zm12.672 31.488v19.584h18.336v-19.584h-18.336Zm104.249-33.408h11.136v6.432c0 19.296-13.728 36.384-36.768 40.896l-5.472-10.56c20.064-3.456 31.104-17.568 31.104-30.336v-6.432Zm2.592 0h11.04v6.432c0 13.056 10.944 26.88 31.104 30.336l-5.472 10.56c-23.04-4.512-36.672-21.312-36.672-40.896v-6.432Zm-35.52 62.592h80.448v10.368h-80.448v-10.368Z"/><defs><filter id="a" width="263.4" height="155.4" x="330.3" y="116.3" color-interpolation-filters="sRGB" filterUnits="userSpaceOnUse"><feFlood flood-opacity="0" result="BackgroundImageFix"/><feColorMatrix in="SourceAlpha" result="hardAlpha" values="0 0 0 0 0 0 0 0 0 0 0 0 0 0 0 0 0 0 127 0"/><feOffset dx="3"/><feGaussianBlur stdDeviation="3.35"/><feComposite in2="hardAlpha" operator="out"/><feColorMatrix values="0 0 0 0 0 0 0 0 0 0 0 0 0 0 0 0 0 0 0.25 0"/><feBlend in2="BackgroundImageFix" result="effect1_dropShadow_67_48"/><feBlend in="SourceGraphic" in2="effect1_dropShadow_67_48" result="shape"/></filter><filter id="b" width="263.4" height="155.4" x="108.3" y="116.3" color-interpolation-filters="sRGB" filterUnits="userSpaceOnUse"><feFlood flood-opacity="0" result="BackgroundImageFix"/><feColorMatrix in="SourceAlpha" result="hardAlpha" values="0 0 0 0 0 0 0 0 0 0 0 0 0 0 0 0 0 0 127 0"/><feOffset dx="3"/><feGaussianBlur stdDeviation="3.35"/><feComposite in2="hardAlpha" operator="out"/><feColorMatrix values="0 0 0 0 0 0 0 0 0 0 0 0 0 0 0 0 0 0 0.25 0"/><feBlend in2="BackgroundImageFix" result="effect1_dropShadow_67_48"/><feBlend in="SourceGraphic" in2="effect1_dropShadow_67_48" result="shape"/></filter></defs></svg>